<svg xmlns="http://www.w3.org/2000/svg" viewBox="0 0 355 427" fill="none">
<path fill="#0593a5" fill-rule="evenodd" d="M 354.75,205.25 L 353.25,204.50 L 341.25,219.00 L 322.50,235.75 L 299.75,251.50 L 274.50,265.00 L 227.75,282.75 L 144.50,301.50 L 121.25,312.50 L 109.00,322.00 L 100.50,332.00 L 95.25,343.00 L 93.00,354.00 L 94.00,368.25 L 98.25,381.75 L 105.50,395.50 L 131.50,426.75 L 134.75,426.75 L 162.75,399.00 L 151.00,387.25 L 146.00,379.50 L 144.25,370.00 L 147.00,367.00 L 167.25,366.00 L 208.00,371.75 L 237.25,370.50 L 256.25,365.75 L 276.50,356.75 L 300.50,338.50 L 319.75,315.25 L 338.75,278.75 L 349.75,243.50 L 354.75,217.25 Z M 149.25,7.75 L 148.50,23.25 L 151.25,51.00 L 161.25,86.00 L 177.25,117.50 L 210.25,167.25 L 230.00,202.75 L 237.50,225.75 L 237.75,245.50 L 245.50,243.75 L 276.25,229.00 L 311.00,207.25 L 332.50,184.25 L 349.00,155.50 L 343.50,138.75 L 331.00,118.50 L 318.50,106.25 L 309.25,100.25 L 282.50,90.75 L 251.25,89.25 L 215.25,95.75 L 201.75,75.25 L 194.75,55.50 L 191.00,29.50 L 192.50,8.25 Z"/>
<path fill="#7e9430" fill-rule="evenodd" d="M 102.75,96.50 L 81.25,95.00 L 63.25,96.75 L 44.50,102.75 L 32.00,110.25 L 19.50,122.50 L 9.75,138.25 L 0.00,170.25 L 0.00,205.75 L 5.75,236.00 L 15.75,269.75 L 24.75,291.25 L 39.50,317.75 L 52.00,334.25 L 65.50,347.50 L 70.25,331.50 L 78.25,316.25 L 86.75,305.25 L 101.75,292.00 L 114.00,284.25 L 134.75,275.00 L 175.00,266.00 L 189.50,261.00 L 204.50,250.75 L 209.00,241.25 L 206.75,222.00 L 193.50,191.25 L 159.00,139.50 L 140.25,107.50 L 126.75,101.75 Z M 43.50,0.00 L 44.75,14.00 L 50.75,32.25 L 59.50,47.50 L 72.50,61.75 L 81.25,68.25 L 100.75,77.00 L 120.00,81.00 L 134.25,81.75 L 135.50,80.50 L 132.50,62.00 L 126.75,46.25 L 118.75,32.75 L 108.25,21.00 L 93.00,10.50 L 78.75,4.75 L 59.25,0.00 Z"/>
</svg>